<svg width="100" height="24" viewBox="0 0 100 24" fill="none" xmlns="http://www.w3.org/2000/svg">
<path d="M76.1779 5.36694H70.7386C70.3672 5.36694 70.0506 5.63754 69.9926 6.00501L67.7932 19.9518C67.7499 20.2271 67.9619 20.4759 68.2406 20.4759H71.0319C71.2919 20.4759 71.5139 20.2867 71.5539 20.0293L72.1779 16.0755C72.2359 15.7081 72.5526 15.4375 72.9246 15.4375H74.6459C78.2279 15.4375 80.2959 13.7035 80.8366 10.2673C81.0792 8.76434 80.8459 7.58341 80.1426 6.75668C79.3686 5.84754 77.9979 5.36694 76.1779 5.36694ZM76.8059 10.4606C76.5086 12.4131 75.0179 12.4131 73.5752 12.4131H72.7546L73.3306 8.76781C73.3652 8.54728 73.5552 8.38501 73.7779 8.38501H74.1546C75.1359 8.38501 76.0639 8.38501 76.5412 8.94428C76.8279 9.27921 76.9139 9.77521 76.8059 10.4606V10.4606Z" fill="#009CDE"/>
<path d="M92.4355 10.3983H89.8315C89.6082 10.3983 89.4182 10.5606 89.3835 10.7811L89.2688 11.5093L89.0868 11.2455C88.5222 10.4269 87.2655 10.1533 86.0102 10.1533C83.1328 10.1533 80.6748 12.3339 80.1968 15.392C79.9475 16.9176 80.3008 18.3758 81.1662 19.3935C81.9608 20.3285 83.0948 20.7177 84.4462 20.7177C86.7655 20.7177 88.0522 19.2275 88.0522 19.2275L87.9355 19.9515C87.8922 20.2268 88.1048 20.4759 88.3835 20.4759H90.7288C91.1008 20.4759 91.4175 20.2055 91.4755 19.8383L92.8835 10.9224C92.9268 10.6469 92.7142 10.3983 92.4355 10.3983V10.3983ZM88.8062 15.4677C88.5542 16.9557 87.3735 17.9548 85.8662 17.9548C85.1108 17.9548 84.5062 17.7119 84.1175 17.2518C83.7322 16.7959 83.5868 16.1461 83.7095 15.4225C83.9442 13.9477 85.1442 12.9164 86.6282 12.9164C87.3675 12.9164 87.9682 13.1616 88.3648 13.626C88.7635 14.0937 88.9202 14.7476 88.8062 15.4677V15.4677Z" fill="#009CDE"/>
<path d="M95.5053 5.75L93.2727 19.9521C93.2293 20.2271 93.442 20.4759 93.7207 20.4759H95.966C96.338 20.4759 96.654 20.2055 96.7127 19.8381L98.9133 5.89127C98.9573 5.61607 98.7447 5.3672 98.466 5.3672H95.9533C95.73 5.36693 95.54 5.52953 95.5053 5.75V5.75ZM18.3293 6.09767C18.6221 4.23053 18.3273 2.96034 17.3175 1.80945C16.2057 0.542687 14.1973 0 11.6275 0H4.16826C3.64319 0 3.19586 0.38208 3.11419 0.90106L0.00792222 20.5972C-0.0532111 20.9859 0.247256 21.3371 0.640323 21.3371H5.24532L4.92752 23.3527C4.87399 23.6927 5.13652 24 5.48072 24H9.36246C9.82179 24 10.2129 23.6658 10.2845 23.2119L10.3227 23.0143L11.0538 18.3775L11.101 18.1214C11.1726 17.6677 11.5637 17.333 12.0231 17.333H12.6037C16.3641 17.333 19.3085 15.8054 20.1688 11.3871C20.5283 9.54107 20.3423 8 19.3917 6.9166C19.1044 6.58953 18.7465 6.31867 18.3293 6.09767V6.09767Z" fill="#009CDE"/>
<path d="M18.3293 6.09767C18.6221 4.23053 18.3273 2.96034 17.3175 1.80945C16.2057 0.542687 14.1973 0 11.6275 0H4.16826C3.64319 0 3.19586 0.38208 3.11419 0.90106L0.00792222 20.5972C-0.0532111 20.9859 0.247256 21.3371 0.640323 21.3371H5.24532L6.40212 14.0018L6.36612 14.2319C6.44805 13.7131 6.89126 13.3308 7.41659 13.3308H9.60539C13.9039 13.3308 17.2698 11.5844 18.253 6.534C18.2823 6.38487 18.307 6.23993 18.3293 6.09767V6.09767Z" fill="#012169"/>
<path d="M37.3845 5.36694H31.9455C31.5736 5.36694 31.2571 5.63754 31.1989 6.00501L28.9993 19.9518C28.956 20.2271 29.1687 20.4759 29.4474 20.4759H32.0445C32.4163 20.4759 32.7328 20.2055 32.791 19.8381L33.3845 16.0755C33.4425 15.7081 33.7591 15.4375 34.1309 15.4375H35.8521C39.4348 15.4375 41.5024 13.7035 42.0429 10.2673C42.2861 8.76434 42.0527 7.58341 41.3491 6.75668C40.5751 5.84754 39.204 5.36694 37.3845 5.36694V5.36694ZM38.0123 10.4606C37.7151 12.4131 36.2239 12.4131 34.7819 12.4131H33.9612L34.5367 8.76781C34.5716 8.54728 34.7613 8.38501 34.9845 8.38501H35.3607C36.3425 8.38501 37.2699 8.38501 37.7478 8.94428C38.0338 9.27921 38.1203 9.77521 38.0123 10.4606V10.4606ZM53.6414 10.3983H51.0374C50.8141 10.3983 50.6241 10.5606 50.5894 10.7811L50.4747 11.5093L50.2927 11.2455C49.7285 10.4269 48.4715 10.1533 47.2162 10.1533C44.339 10.1533 41.8807 12.3339 41.4024 15.392C41.1533 16.9176 41.5067 18.3758 42.3719 19.3935C43.1666 20.3285 44.3009 20.7177 45.6522 20.7177C47.9713 20.7177 49.2579 19.2275 49.2579 19.2275L49.1415 19.9515C49.0978 20.2268 49.3105 20.4759 49.5894 20.4759H51.9347C52.3067 20.4759 52.6227 20.2055 52.6814 19.8383L54.0894 10.9224C54.1327 10.6469 53.9201 10.3983 53.6414 10.3983V10.3983ZM50.0121 15.4677C49.7603 16.9557 48.5788 17.9548 47.072 17.9548C46.3166 17.9548 45.7119 17.7119 45.3231 17.2518C44.9379 16.7959 44.7929 16.1461 44.9152 15.4225C45.1496 13.9477 46.3501 12.9164 47.8339 12.9164C48.5734 12.9164 49.1741 13.1616 49.5703 13.626C49.9693 14.0937 50.1261 14.7476 50.0121 15.4677V15.4677Z" fill="#003087"/>
<path d="M67.5133 10.3982H64.8953C64.6446 10.3982 64.4106 10.5227 64.2699 10.7297L60.6586 16.048L59.1286 10.9372C59.0326 10.6175 58.7379 10.3979 58.4046 10.3979H55.8313C55.5206 10.3979 55.3019 10.7035 55.4019 10.9979L58.2846 19.4589L55.5733 23.2841C55.3606 23.5845 55.5753 23.9999 55.9433 23.9999H58.5586C58.8066 23.9999 59.0386 23.8784 59.1799 23.6745L67.8859 11.1098C68.0939 10.8094 67.8786 10.3982 67.5133 10.3982V10.3982Z" fill="#003087"/>
<path d="M7.64492 6.12233C7.69406 5.8104 7.89446 5.55473 8.16412 5.42567C8.28659 5.367 8.42372 5.3342 8.56719 5.3342H14.4143C15.1071 5.3342 15.7529 5.37967 16.3433 5.4748C16.512 5.50193 16.6763 5.5332 16.8359 5.56867C16.9953 5.60413 17.1503 5.64347 17.3001 5.68747C17.3751 5.7092 17.4487 5.73247 17.5213 5.7564C17.8113 5.85273 18.0814 5.96613 18.3297 6.09793C18.6226 4.23073 18.3278 2.96058 17.3179 1.80969C16.2057 0.542687 14.1973 0 11.6275 0H4.16826C3.64319 0 3.19586 0.38208 3.11419 0.90106L0.00792222 20.5972C-0.0532111 20.9859 0.247256 21.3371 0.640323 21.3371H5.24532L6.40212 14.0018L7.64492 6.12233V6.12233Z" fill="#003087"/>
</svg>
