<svg width="24" height="24" viewBox="0 0 24 24" fill="none" xmlns="http://www.w3.org/2000/svg">
<path fill-rule="evenodd" clip-rule="evenodd" d="M12 24C18.6274 24 24 18.6274 24 12C24 5.37258 18.6274 0 12 0C5.37258 0 0 5.37258 0 12C0 18.6274 5.37258 24 12 24ZM13.0309 11.1429C12.5309 11.1429 12.0701 11.1429 12.0701 11.1429H11.1429H6.85714C6.38376 11.1429 6 11.5266 6 12C6 12.4734 6.38376 12.8571 6.85714 12.8571H11.1429C11 12.8571 11.0266 12.8571 11.5 12.8571C11.9734 12.8571 12.2827 12.8571 12.5 12.8571H12.8571H17.1429C17.6162 12.8571 18 12.4734 18 12C18 11.5266 17.6162 11.1429 17.1429 11.1429H13.0309Z" fill="white"/>
</svg>
