<svg width="72" height="24" viewBox="0 0 72 24" fill="none" xmlns="http://www.w3.org/2000/svg">
<path d="M5.825 22L7.45 14.975L2 10.25L9.2 9.625L12 3L14.8 9.625L22 10.25L16.55 14.975L18.175 22L12 18.275L5.825 22Z" fill="black"/>
<path d="M29.825 22L31.45 14.975L26 10.25L33.2 9.625L36 3L38.8 9.625L46 10.25L40.55 14.975L42.175 22L36 18.275L29.825 22Z" fill="black"/>
<path d="M53.825 22L55.45 14.975L50 10.25L57.2 9.625L60 3L62.8 9.625L70 10.25L64.55 14.975L66.175 22L60 18.275L53.825 22Z" fill="black"/>
</svg>
