<svg width="150" height="154" viewBox="0 0 150 154" fill="none" xmlns="http://www.w3.org/2000/svg">
<g filter="url(#filter0_d_7869_4353)">
<path d="M143.607 53.1446L130.679 40.2159C129.636 39.1868 128.245 38.5859 126.78 38.5317C125.316 38.4775 123.885 38.9738 122.768 39.9229C121.045 41.3899 118.833 42.1559 116.572 42.069C114.31 41.9822 112.163 41.0489 110.558 39.4541C108.964 37.8483 108.031 35.7024 107.944 33.4415C107.857 31.1805 108.623 28.9694 110.089 27.2461C111.038 26.1298 111.534 24.6983 111.48 23.2341C111.426 21.7699 110.825 20.3791 109.796 19.336L96.8554 6.39261C95.7618 5.30112 94.2798 4.68811 92.7348 4.68811C91.1897 4.68811 89.7077 5.30112 88.6142 6.39261L68.0038 27C66.7316 28.2773 65.772 29.8314 65.2001 31.541C65.0888 31.8698 64.9032 32.1684 64.6578 32.4138C64.4124 32.6592 64.1138 32.8448 63.7851 32.9561C62.0747 33.5279 60.5203 34.4886 59.244 35.7627L6.39249 88.6143C5.301 89.7079 4.68799 91.1898 4.68799 92.7349C4.68799 94.28 5.301 95.7619 6.39249 96.8555L19.3358 109.784C20.3789 110.813 21.7697 111.414 23.234 111.468C24.6982 111.523 26.1296 111.026 27.246 110.077C28.9654 108.598 31.1801 107.824 33.4464 107.909C35.7127 107.994 37.8632 108.932 39.4668 110.536C41.0705 112.14 42.0089 114.29 42.0939 116.556C42.179 118.823 41.4046 121.037 39.9257 122.757C38.9766 123.873 38.4803 125.305 38.5345 126.769C38.5888 128.233 39.1896 129.624 40.2187 130.667L53.1474 143.596C54.2409 144.687 55.7229 145.3 57.268 145.3C58.813 145.3 60.295 144.687 61.3886 143.596L114.24 90.7442C115.514 89.4687 116.475 87.9154 117.047 86.2061C117.158 85.8763 117.343 85.5767 117.589 85.3306C117.835 85.0846 118.135 84.8989 118.465 84.7881C120.174 84.2164 121.727 83.2567 123.003 81.9844L143.61 61.3741C144.698 60.2806 145.308 58.8009 145.307 57.2587C145.307 55.7165 144.696 54.2373 143.607 53.1446ZM76.7021 44.458C76.2668 44.8934 75.75 45.2388 75.1812 45.4744C74.6124 45.7101 74.0028 45.8314 73.3871 45.8314C72.7715 45.8314 72.1618 45.7101 71.593 45.4744C71.0243 45.2388 70.5075 44.8934 70.0722 44.458L66.7001 41.086C65.8424 40.2025 65.3668 39.017 65.3761 37.7857C65.3854 36.5544 65.8788 35.3761 66.7496 34.5056C67.6205 33.6352 68.799 33.1423 70.0303 33.1336C71.2616 33.1248 72.4469 33.601 73.33 34.459L76.7021 37.8282C77.1374 38.2634 77.4828 38.7802 77.7185 39.349C77.9541 39.9178 78.0754 40.5274 78.0754 41.1431C78.0754 41.7588 77.9541 42.3684 77.7185 42.9372C77.4828 43.506 77.1374 44.0227 76.7021 44.458ZM89.5927 57.3487C88.7137 58.2271 87.5219 58.7205 86.2792 58.7205C85.0365 58.7205 83.8447 58.2271 82.9657 57.3487L79.7431 54.126C78.8639 53.2468 78.37 52.0544 78.37 50.8111C78.37 49.5677 78.8639 48.3753 79.7431 47.4961C80.6222 46.6169 81.8147 46.123 83.058 46.123C84.3014 46.123 85.4938 46.6169 86.373 47.4961L89.5956 50.7188C90.0325 51.154 90.3792 51.6712 90.6159 52.2407C90.8526 52.8102 90.9745 53.4208 90.9748 54.0375C90.9751 54.6542 90.8536 55.2649 90.6175 55.8346C90.3813 56.4043 90.035 56.9218 89.5985 57.3575L89.5927 57.3487ZM102.483 70.2393C102.048 70.6747 101.531 71.0201 100.962 71.2557C100.394 71.4913 99.784 71.6126 99.1684 71.6126C98.5527 71.6126 97.9431 71.4913 97.3743 71.2557C96.8055 71.0201 96.2887 70.6747 95.8534 70.2393L92.6308 67.0166C91.7731 66.1331 91.2975 64.9476 91.3068 63.7163C91.316 62.485 91.8094 61.3068 92.6803 60.4363C93.5512 59.5658 94.7296 59.0729 95.9609 59.0642C97.1922 59.0555 98.3775 59.5316 99.2607 60.3897L102.483 63.6123C102.921 64.0469 103.269 64.5636 103.507 65.133C103.745 65.7023 103.868 66.313 103.87 66.9301C103.871 67.5471 103.751 68.1584 103.515 68.7288C103.28 69.2992 102.934 69.8175 102.498 70.2539L102.483 70.2393ZM115.5 83.2881C115.065 83.7235 114.548 84.0689 113.979 84.3045C113.41 84.5402 112.801 84.6614 112.185 84.6614C111.569 84.6614 110.96 84.5402 110.391 84.3045C109.822 84.0689 109.305 83.7235 108.87 83.2881L105.518 79.919C105.074 79.485 104.72 78.9669 104.478 78.395C104.235 77.823 104.109 77.2086 104.106 76.5873C104.103 75.9661 104.223 75.3504 104.46 74.7762C104.697 74.2019 105.046 73.6805 105.487 73.2423C105.927 72.8041 106.45 72.4578 107.025 72.2235C107.601 71.9892 108.217 71.8717 108.838 71.8777C109.459 71.8836 110.073 72.0131 110.644 72.2584C111.215 72.5037 111.731 72.86 112.163 73.3067L115.517 76.6729C115.953 77.1084 116.298 77.6253 116.533 78.1942C116.769 78.7631 116.89 79.3728 116.889 79.9884C116.889 80.6041 116.768 81.2137 116.532 81.7823C116.296 82.351 115.95 82.8677 115.515 83.3028L115.5 83.2881Z" fill="black"/>
</g>
<defs>
<filter id="filter0_d_7869_4353" x="-4" y="0" width="158" height="158" filterUnits="userSpaceOnUse" color-interpolation-filters="sRGB">
<feFlood flood-opacity="0" result="BackgroundImageFix"/>
<feColorMatrix in="SourceAlpha" type="matrix" values="0 0 0 0 0 0 0 0 0 0 0 0 0 0 0 0 0 0 127 0" result="hardAlpha"/>
<feOffset dy="4"/>
<feGaussianBlur stdDeviation="2"/>
<feComposite in2="hardAlpha" operator="out"/>
<feColorMatrix type="matrix" values="0 0 0 0 0 0 0 0 0 0 0 0 0 0 0 0 0 0 0.25 0"/>
<feBlend mode="normal" in2="BackgroundImageFix" result="effect1_dropShadow_7869_4353"/>
<feBlend mode="normal" in="SourceGraphic" in2="effect1_dropShadow_7869_4353" result="shape"/>
</filter>
</defs>
</svg>
